<?xml version="1.0" encoding="UTF-8"?>
<svg width="50px" height="50px" viewBox="0 0 50 50" version="1.1" xmlns="http://www.w3.org/2000/svg" xmlns:xlink="http://www.w3.org/1999/xlink">
    <!-- Generator: Sketch 47.1 (45422) - http://www.bohemiancoding.com/sketch -->
    <title>logo-white-background</title>
    <desc>Created with Sketch.</desc>
    <defs>
        <linearGradient x1="93.1712932%" y1="0%" x2="18.2354904%" y2="102.692458%" id="linearGradient-1">
            <stop stop-color="#126AFB" offset="0%"></stop>
            <stop stop-color="#0C4BB3" offset="100%"></stop>
        </linearGradient>
        <linearGradient x1="0%" y1="82.2999615%" x2="50%" y2="32.659361%" id="linearGradient-2">
            <stop stop-color="#B2D2FF" offset="0%"></stop>
            <stop stop-color="#FFFFFF" offset="100%"></stop>
        </linearGradient>
        <path d="M18.8828633,0 C19.8633455,0 20.7245082,0.129970291 21.4663774,0.389914773 C22.2082467,0.649859254 22.8264617,1.01207154 23.3210412,1.4765625 C23.8156207,1.94105346 24.1887189,2.49502519 24.4403471,3.13849432 C24.6919752,3.78196344 24.8177874,4.49147339 24.8177874,5.26704545 C24.8177874,5.77841165 24.7462046,6.25141828 24.6030369,6.68607955 C24.4598691,7.12074081 24.27332,7.51704366 24.0433839,7.875 C23.8134479,8.23295634 23.5509776,8.55681673 23.2559653,8.84659091 C22.960953,9.13636509 22.6616067,9.39204435 22.3579176,9.61363636 C21.6290636,10.1420481 20.8091152,10.5681802 19.8980477,10.8920455 C19.5943586,11.0113642 19.2928431,11.1541185 18.9934924,11.3203125 C18.6941417,11.4865065 18.4273331,11.678266 18.1930586,11.8955966 C17.9587841,12.1129272 17.7678966,12.3643452 17.6203905,12.649858 C17.4728843,12.9353707 17.3991323,13.2613618 17.3991323,13.6278409 L17.3991323,14.4204545 L21.9284165,14.4204545 C22.2928435,14.4204545 22.657265,14.4374998 23.021692,14.4715909 C23.386119,14.505682 23.7158337,14.5823858 24.010846,14.7017045 C24.3058583,14.8210233 24.5444676,14.9978681 24.7266811,15.2322443 C24.9088946,15.4666205 25,15.7840889 25,16.1846591 C25,16.593752 24.9088946,16.9176124 24.7266811,17.15625 C24.5444676,17.3948876 24.3058583,17.5781244 24.010846,17.7059659 C23.7158337,17.8338075 23.386119,17.9147726 23.021692,17.9488636 C22.657265,17.9829547 22.2928435,18 21.9284165,18 L15.4468547,18 C15.013013,18 14.655099,17.9296882 14.373102,17.7890625 C14.0911049,17.6484368 13.8676798,17.4694613 13.70282,17.2521307 C13.5379601,17.0348 13.4229938,16.7919048 13.3579176,16.5234375 C13.2928413,16.2549702 13.2603037,15.9886377 13.2603037,15.7244318 L13.2603037,13.6789773 C13.2603037,13.022724 13.3709316,12.4069631 13.5921909,11.8316761 C13.8134501,11.2563892 14.1258114,10.7322467 14.5292842,10.259233 C14.9327569,9.78621923 15.4143139,9.36221778 15.9739696,8.98721591 C16.5336254,8.61221403 17.1561788,8.29261496 17.8416486,8.02840909 C18.5271184,7.76420322 19.0737507,7.51065462 19.4815618,7.26775568 C19.889373,7.02485674 20.2039034,6.78622276 20.4251627,6.55184659 C20.6464219,6.31747042 20.7917567,6.0809671 20.8611714,5.84232955 C20.930586,5.60369199 20.9652928,5.36079669 20.9652928,5.11363636 C20.9652928,4.67045233 20.8893717,4.32102401 20.7375271,4.06534091 C20.5856825,3.80965781 20.3991334,3.62002903 20.1778742,3.49644886 C19.9566149,3.3728687 19.7266823,3.29616492 19.4880694,3.26633523 C19.2494565,3.23650553 19.0477232,3.22159091 18.8828633,3.22159091 C18.4490217,3.22159091 18.1019536,3.28338006 17.8416486,3.40696023 C17.5813436,3.53054039 17.3839486,3.68607861 17.2494577,3.87357955 C17.1149668,4.06108048 17.0281998,4.26775455 16.989154,4.49360795 C16.9501083,4.71946136 16.9305857,4.93465807 16.9305857,5.13920455 C16.9305857,5.47159257 16.8655104,5.75497042 16.7353579,5.98934659 C16.6052054,6.22372276 16.4425172,6.41335155 16.2472885,6.55823864 C16.0520598,6.70312572 15.8394805,6.80965875 15.6095445,6.87784091 C15.3796084,6.94602307 15.1691984,6.98011364 14.978308,6.98011364 C14.3882834,6.98011364 13.9110647,6.8203141 13.5466377,6.50071023 C13.1822108,6.18110636 13,5.76988888 13,5.26704545 C13,5.04545344 13.0260301,4.75994493 13.0780911,4.41051136 C13.1301521,4.0610778 13.2299342,3.69034287 13.3774403,3.29829545 C13.5249465,2.90624804 13.7331874,2.51420651 14.0021692,2.12215909 C14.271151,1.73011168 14.6225575,1.37642203 15.0563991,1.06107955 C15.4902408,0.74573706 16.0195197,0.490057798 16.6442516,0.294034091 C17.2689836,0.0980103835 18.01518,0 18.8828633,0 Z" id="path-3"></path>
        <filter x="-75.0%" y="-38.9%" width="233.3%" height="188.9%" filterUnits="objectBoundingBox" id="filter-4">
            <feOffset dx="-1" dy="1" in="SourceAlpha" result="shadowOffsetOuter1"></feOffset>
            <feGaussianBlur stdDeviation="2.5" in="shadowOffsetOuter1" result="shadowBlurOuter1"></feGaussianBlur>
            <feColorMatrix values="0 0 0 0 0.0336770796   0 0 0 0 0.18677325   0 0 0 0 0.410342262  0 0 0 0.199275362 0" type="matrix" in="shadowBlurOuter1"></feColorMatrix>
        </filter>
        <linearGradient x1="50%" y1="87.6406478%" x2="72.7679035%" y2="36.8051739%" id="linearGradient-5">
            <stop stop-color="#B2D2FF" offset="0%"></stop>
            <stop stop-color="#FFFFFF" offset="100%"></stop>
        </linearGradient>
        <path d="M12.4399038,8.12571429 C13.0288491,8.12571429 13.4915849,8.20285637 13.828125,8.35714286 C14.1646651,8.51142934 14.4200712,8.71999869 14.594351,8.98285714 C14.7686307,9.2457156 14.8798075,9.55142683 14.9278846,9.9 C14.9759618,10.2485732 15,10.6171409 15,11.0057143 L15,21.1542857 C15,21.5542877 14.9759618,21.9257126 14.9278846,22.2685714 C14.8798075,22.6114303 14.7716355,22.9114273 14.6033654,23.1685714 C14.4350953,23.4257156 14.182694,23.6285707 13.8461538,23.7771429 C13.5096137,23.925715 13.0528875,24 12.4759615,24 C11.9110549,24 11.4603382,23.9285721 11.1237981,23.7857143 C10.7872579,23.6428564 10.5288471,23.4514298 10.3485577,23.2114286 C10.1682683,22.9714274 10.051082,22.6857159 9.99699519,22.3542857 C9.94290838,22.0228555 9.91586538,21.6685733 9.91586538,21.2914286 L9.91586538,18.24 L3.75,18.24 C3.00480397,18.24 2.39182933,18.1828577 1.91105769,18.0685714 C1.43028606,17.9542851 1.0486793,17.8028581 0.766225962,17.6142857 C0.483772626,17.4257133 0.285457302,17.2057155 0.171274038,16.9542857 C0.0570907752,16.7028559 0,16.4457156 0,16.1828571 C0,16.0457136 0.0150238882,15.9085721 0.0450721154,15.7714286 C0.0751203425,15.634285 0.108172897,15.4971435 0.144230769,15.36 L3.78605769,3.32571429 C3.9062506,2.90285503 4.02343693,2.49143057 4.13762019,2.09142857 C4.25180346,1.69142657 4.40805189,1.3371444 4.60637019,1.02857143 C4.80468849,0.719998457 5.07812326,0.471429514 5.42668269,0.282857143 C5.77524213,0.0942847714 6.249997,-1.0658141e-14 6.85096154,-1.0658141e-14 C7.28365601,-1.0658141e-14 7.64122455,0.0571422857 7.92367788,0.171428571 C8.20613122,0.285714857 8.43148954,0.437141914 8.59975962,0.625714286 C8.76802969,0.814286657 8.88521602,1.03142734 8.95132212,1.27714286 C9.01742822,1.52285837 9.05048077,1.78285577 9.05048077,2.05714286 C9.05048077,2.33142994 9.02644255,2.60857003 8.97836538,2.88857143 C8.93028822,3.16857283 8.87319745,3.42857023 8.80709135,3.66857143 C8.74098525,3.90857263 8.67488014,4.1228562 8.60877404,4.31142857 C8.54266794,4.50000094 8.49759627,4.63999954 8.47355769,4.73142857 L8.36538462,5.1 C8.29326887,5.34571551 8.19711599,5.66571231 8.07692308,6.06 C7.95673017,6.45428769 7.82451995,6.90571174 7.68028846,7.41428571 C7.53605697,7.92285969 7.38581809,8.43999737 7.22956731,8.96571429 C6.85696929,10.2000062 6.44230998,11.5999922 5.98557692,13.1657143 L6.12980769,13.3028571 L9.91586538,13.3028571 L9.91586538,10.9714286 C9.91586538,10.5828552 9.93990361,10.2171446 9.98798077,9.87428571 C10.0360579,9.53142686 10.1442299,9.23142986 10.3125,8.97428571 C10.4807701,8.71714157 10.7331714,8.51142934 11.0697115,8.35714286 C11.4062517,8.20285637 11.8629779,8.12571429 12.4399038,8.12571429 Z" id="path-6"></path>
        <filter x="-60.0%" y="-29.2%" width="206.7%" height="166.7%" filterUnits="objectBoundingBox" id="filter-7">
            <feOffset dx="-1" dy="1" in="SourceAlpha" result="shadowOffsetOuter1"></feOffset>
            <feGaussianBlur stdDeviation="2.5" in="shadowOffsetOuter1" result="shadowBlurOuter1"></feGaussianBlur>
            <feColorMatrix values="0 0 0 0 0.0336770796   0 0 0 0 0.18677325   0 0 0 0 0.410342262  0 0 0 0.199275362 0" type="matrix" in="shadowBlurOuter1"></feColorMatrix>
        </filter>
    </defs>
    <g id="Page-1" stroke="none" stroke-width="1" fill="none" fill-rule="evenodd">
        <g id="Desktop" transform="translate(-100.000000, -30.000000)">
            <g id="logo-white-background" transform="translate(100.000000, 30.000000)">
                <rect id="Rectangle-2" fill="url(#linearGradient-1)" x="0" y="0" width="50" height="50" rx="4"></rect>
                <g id="Group" transform="translate(12.000000, 15.000000)">
                    <g id="Path">
                        <use fill="black" fill-opacity="1" filter="url(#filter-4)" xlink:href="#path-3"></use>
                        <use fill="url(#linearGradient-2)" fill-rule="evenodd" xlink:href="#path-3"></use>
                    </g>
                    <g id="42-copy">
                        <use fill="black" fill-opacity="1" filter="url(#filter-7)" xlink:href="#path-6"></use>
                        <use fill="url(#linearGradient-5)" fill-rule="evenodd" xlink:href="#path-6"></use>
                    </g>
                </g>
            </g>
        </g>
    </g>
</svg>