<?xml version="1.0" encoding="utf-8"?>
<!-- Generator: Adobe Illustrator 19.1.0, SVG Export Plug-In . SVG Version: 6.00 Build 0)  -->
<!DOCTYPE svg PUBLIC "-//W3C//DTD SVG 1.1//EN" "http://www.w3.org/Graphics/SVG/1.1/DTD/svg11.dtd">
<svg version="1.1" id="Layer_1" xmlns="http://www.w3.org/2000/svg" xmlns:xlink="http://www.w3.org/1999/xlink" x="0px" y="0px"
	 width="640px" height="640px" viewBox="0 0 640 640" enable-background="new 0 0 640 640" xml:space="preserve">
<path fill-rule="evenodd" clip-rule="evenodd" fill="#D50032" d="M538.02,299.273c-3.494-3.706-8.401-6.655-15.926-6.655
	c-5.676,0-11.565,2.727-14.4,5.891l-0.218-2.182c-0.218-1.746-1.309-2.291-3.382-2.291h-6.025h-2.372h-3.166v3.055v7.2v57.316v5.953
	v3.27h3.054h4.205h5.723c2.182,0,3.383-0.867,3.383-3.379v-23.015c2.943,2.725,7.416,4.361,12.215,4.361
	c7.091,0,12.874-2.836,16.911-7.637c4.582-5.346,6.98-12.982,6.98-21.487C545,312.144,542.82,304.291,538.02,299.273 M524.819,332
	c-1.417,1.964-4.145,3.6-7.309,3.6c-3.164,0-6.652-1.637-8.615-3.494v-22.251c1.742-1.857,5.778-3.928,8.942-3.928
	c2.946,0,5.783,1.091,7.638,3.928c1.529,2.289,2.509,5.891,2.509,10.798C527.983,325.675,527.004,329.052,524.819,332
	 M479.779,294.021h-8.406h-1.413h-3.387v2.839v5.343v27.51c-3.055,2.621-7.531,4.257-11.131,4.257c-4.916,0-6.225-3.167-6.225-7.642
	V296.86c0-2.291-1.091-2.839-3.164-2.839h-5.547h-4.277h-3.38v2.839v6.289v26.127c0,11.789,5.349,19.428,17.244,19.428
	c6.439,0,12.443-2.073,17.464-6.003v4.475h3.161h5.79h3.052c2.621,0,3.385-0.876,3.385-3.602V296.86
	C482.946,294.569,481.855,294.021,479.779,294.021 M333.998,317.096l-11.241-4.454c-3.779-1.447-4.226-2.89-4.226-4.227
	c0-1.556,1.67-3.558,5.34-3.558c3.561,0,8.124,1.114,12.35,2.672c0.012,0.002,0.025,0.006,0.037,0.008l0.002-0.002
	c0.084,0.028,0.168,0.059,0.252,0.086c0.114,0.036,0.226,0.076,0.341,0.115c0.109,0.036,0.221,0.072,0.33,0.108
	c0.106,0.034,0.21,0.067,0.313,0.101c0.093,0.028,0.188,0.056,0.28,0.084c0.078,0.025,0.157,0.048,0.234,0.07
	c0.057,0.014,0.115,0.031,0.174,0.042c0.07,0.015,0.143,0.031,0.212,0.04c0.082,0.011,0.16,0.017,0.238,0.017
	c0.039,0.002,0.081,0,0.12,0c0.079-0.004,0.154-0.011,0.23-0.023c0.092-0.013,0.187-0.03,0.276-0.058
	c0.087-0.022,0.168-0.053,0.249-0.092c0.076-0.037,0.152-0.079,0.221-0.128c0.07-0.051,0.134-0.106,0.193-0.165
	c0.062-0.065,0.118-0.135,0.169-0.208c0.053-0.075,0.1-0.16,0.143-0.243c0.044-0.093,0.086-0.188,0.12-0.285
	c0.036-0.106,0.07-0.216,0.095-0.328c0.022-0.086,0.042-0.176,0.055-0.266c0,0,0.098-0.607,0.123-0.767l1.085-6.784
	c0.098-0.498,0.179-1.113,0.179-1.449c0-0.89-0.554-1.446-1.555-1.888c-5.901-2.675-11.682-3.564-17.467-3.564
	c-9.906,0-21.255,4.784-21.255,16.693c0,8.011,5.343,13.349,11.349,15.575l9.906,3.671c4.112,1.558,5.226,2.671,5.226,4.783
	c0,2.451-2.445,3.897-6.01,3.897c-3.904,0-8.97-1.163-14.275-3.284c-0.003-0.003-0.006-0.003-0.011-0.003v-0.003
	c-0.092-0.034-0.187-0.067-0.28-0.1c-0.106-0.037-0.209-0.073-0.313-0.109c-0.112-0.037-0.221-0.075-0.333-0.112
	c-0.114-0.038-0.226-0.078-0.338-0.115c-0.112-0.036-0.224-0.072-0.332-0.108c-0.104-0.034-0.21-0.068-0.313-0.101
	c-0.092-0.031-0.185-0.059-0.28-0.087c-0.078-0.022-0.157-0.044-0.236-0.067c-0.056-0.017-0.114-0.034-0.173-0.045
	c-0.07-0.011-0.14-0.028-0.213-0.039c-0.078-0.009-0.16-0.014-0.238-0.016c-0.04,0-0.082,0-0.121,0.002
	c-0.075,0.003-0.154,0.011-0.229,0.023c-0.093,0.011-0.185,0.03-0.277,0.055c-0.084,0.026-0.168,0.057-0.249,0.093
	c-0.076,0.036-0.151,0.081-0.221,0.129c-0.067,0.05-0.134,0.106-0.193,0.167c-0.061,0.065-0.118,0.132-0.167,0.204
	c-0.054,0.079-0.101,0.16-0.143,0.246c-0.045,0.09-0.084,0.188-0.117,0.283c-0.04,0.109-0.07,0.218-0.098,0.327
	c-0.022,0.09-0.039,0.177-0.056,0.267c0,0-0.481,3.01-0.775,4.845v0.002l-0.427,2.688c-0.109,0.448-0.174,0.865-0.174,1.309
	c0,0.781,0.335,1.562,1.558,2.007c6.118,2.556,12.686,4.114,18.583,4.114c11.013,0,22.366-4.895,22.366-17.69
	C344.013,323.994,339.67,319.32,333.998,317.096 M424.82,292.947c-0.98-0.219-2.183-0.434-3.055-0.434
	c-6.434,0-9.708,2.291-13.635,6.98l-0.218-3.271c-0.109-1.636-1.091-2.185-3.161-2.185h-6.96h-1.88h-3.161v3.164v4.239v9.072v28.707
	v4.89v3.054h3.052h3.242h7.013c2.182,0,3.055-1.09,3.055-3.054V311.49c2.73-2.725,6.434-4.255,10.037-4.255
	c0.982,0,2.071,0.113,2.946,0.328h0.216h0.326c0.985,0,1.529-0.542,1.749-1.745l1.634-10.252c0.112-0.437,0.112-0.655,0.112-0.979
	v-0.221C426.02,293.601,425.693,293.167,424.82,292.947 M351.113,326.122c0,8.946,0.218,13.417,3.706,17.562
	c2.946,3.491,7.858,4.91,13.965,4.91c5.019,0,9.819-0.979,13.961-2.836c1.203-0.545,1.746-1.091,1.746-2.291
	c0-0.325,0-0.655-0.109-0.985l-1.309-6.979c-0.215-0.98-0.654-1.525-1.528-1.525c-0.433,0-0.873,0.109-1.524,0.327
	c-2.185,0.652-4.255,1.307-6.982,1.307c-4.801,0-5.566-3.489-5.566-9.162v-21.274h11.891c1.528,0,2.616-0.87,2.616-2.503v-6.33
	c0-1.634-1.089-2.292-2.616-2.292h-11.78v-12.761c0-1.964-0.873-2.838-2.51-2.838h-0.653l-9.82,1.309l-3.488,0.457V326.122z
	 M291.94,302.115c-1.964-4.473-7.309-9.274-15.814-9.274c-6.876,0-14.073,2.403-18.986,7.31c-2.291-3.71-6.325-7.31-13.632-7.31
	c-5.563,0-11.237,2.182-15.598,5.891l-0.221-2.072c-0.218-1.636-1.309-2.291-3.161-2.291h-6.061h-2.888h-3.054v2.837v4.663v31.334
	v4.135v6.99v3.167h3.382h3.362h6.456c2.185,0,3.164-0.873,3.164-3.167v-11.125v-21.38c3.055-2.725,6.764-4.583,10.365-4.583
	c4.909,0,5.888,3.491,5.888,7.858v18.104v3.379v7.746v3.167h3.382h3.989h4.957c2.18,0,3.164-0.873,3.164-3.167v-11.125v-21.38
	c2.943-2.509,7.417-4.583,11.237-4.583c4.907,0,5.889,3.491,5.889,7.858v18.104v0.238v10.887v3.167h3.382h6.68h3.138
	c2.179,0,3.164-0.873,3.164-3.167v-11.125v-14.071C294.125,311.388,293.903,306.475,291.94,302.115 M148.666,343.676l-16.147-26.727
	l14.183-19.635c0.434-0.545,0.545-1.091,0.545-1.53c0-0.867-0.654-1.418-1.857-1.418h-8.202h-3.575h-2.548l-4.093,6.649
	c-0.952,1.53-1.9,3.061-2.848,4.588c-0.959,1.549-1.919,3.1-2.881,4.649c-0.762,1.225-1.52,2.453-2.28,3.679
	c-1.089,1.754-2.204,3.494-3.304,5.242c1.262,2.273,2.543,4.535,3.81,6.806c0.831,1.488,1.662,2.976,2.493,4.464
	c0.974,1.746,1.947,3.495,2.92,5.24c0.811,1.454,1.623,2.909,2.437,4.364l4.129,7.444h3.581h2.35h9.869
	c0.873,0,2.291-0.216,2.291-1.419C149.539,345.2,149.099,344.44,148.666,343.676 M109.183,269.169c-0.327,0-0.764,0-1.2,0.112
	l-10.364,1.415L95,271.083v2.668v2.713v63.495v4.586v2.948h2.946h2.33h8.252c1.961,0,2.836-1.203,2.836-3.056v-6.106v-14.043v-1.122
	v-7.524v-1.195v-24.114v-18.329C111.364,269.824,110.601,269.169,109.183,269.169 M187.722,299.012
	c-0.023-0.031-0.101-0.132-0.123-0.16c-2.316-3.237-7.195-6.026-13.251-6.026c-12.007,0-24.016,9.822-24.016,29.14
	c0,14.519,7.316,26.959,23.031,26.959c4.856,0,11.049-2.521,14.359-5.517v4.098h2.772h5.488h4.334c1.53,0,2.621-0.878,2.621-2.62
	v-10.233c0-0.008,0.006-0.013,0.006-0.025v-37.656c0-1.743-1.091-2.621-2.62-2.621h-4.334H190.5h-2.778V299.012z M186.569,331.134
	c-1.309,1.637-5.237,4.585-9.166,4.585c-8.298,0-10.041-8.075-10.041-14.842c0-10.152,5.018-14.516,10.367-14.516
	c3.273,0,6.876,1.966,8.84,3.709V331.134z"/>
<g>
</g>
<g>
</g>
<g>
</g>
<g>
</g>
<g>
</g>
<g>
</g>
</svg>
